<?xml version="1.0" encoding="UTF-8" standalone="no"?>
<svg
   width="1920"
   zoomAndPan="magnify"
   viewBox="0 0 1440 207.77341"
   height="277.03122"
   preserveAspectRatio="xMidYMid"
   version="1.0"
   id="svg6"
   sodipodi:docname="Prathamesh Prabhakar.svg"
   xmlns:inkscape="http://www.inkscape.org/namespaces/inkscape"
   xmlns:sodipodi="http://sodipodi.sourceforge.net/DTD/sodipodi-0.dtd"
   xmlns="http://www.w3.org/2000/svg"
   xmlns:svg="http://www.w3.org/2000/svg">
  <sodipodi:namedview
     id="namedview6"
     pagecolor="#ffffff"
     bordercolor="#000000"
     borderopacity="0.25"
     inkscape:showpageshadow="2"
     inkscape:pageopacity="0.0"
     inkscape:pagecheckerboard="0"
     inkscape:deskcolor="#d1d1d1">
    <inkscape:page
       x="0"
       y="0"
       width="1440"
       height="207.77341"
       id="page2"
       margin="0"
       bleed="0" />
  </sodipodi:namedview>
  <defs
     id="defs3">
    <clipPath
       id="d6a7308aab">
      <path
         d="M 434.66797,300.94531 H 996 V 508.71875 H 434.66797 Z m 0,0"
         clip-rule="nonzero"
         id="path1" />
    </clipPath>
    <clipPath
       id="444b194f42">
      <path
         d="M 0,300.94531 H 444.54297 V 508.71875 H 0 Z m 0,0"
         clip-rule="nonzero"
         id="path2" />
    </clipPath>
    <clipPath
       id="8c117571eb">
      <path
         d="M 995.74219,300.94531 H 1440 V 508.71875 H 995.74219 Z m 0,0"
         clip-rule="nonzero"
         id="path3" />
    </clipPath>
  </defs>
  <g
     clip-path="url(#d6a7308aab)"
     id="g4"
     transform="translate(0,-300.94533)">
    <path
       fill="#8c52ff"
       d="m 995.5625,395.95703 v 18.37891 h -1.77734 v -6.07813 h -2.96485 v 5.48438 h -1.78125 v -5.48438 h -1.48047 v 5.1875 h -1.77734 v -5.1875 h -6.22656 v 9.04297 h -1.77735 v -9.04297 h -9.33984 v 5.48438 h -1.77734 v -5.48438 h -3.5586 v 4.89063 h -2.07422 v -4.89063 h -2.66797 v 8.44922 h -1.77734 v -8.44922 h -2.07812 v 18.08203 h -1.77735 v -18.08203 h -2.66797 v 25.9375 h -1.77734 v -25.9375 h -3.55859 v 32.01563 h -1.77735 v -32.01563 h -3.85547 v 26.23438 h -1.77734 v -26.23438 h -2.07422 v 27.71875 h -1.78125 v -27.71875 h -2.96484 v 44.02344 h -1.77735 v -44.02344 h -3.26172 v 15.71094 h -1.77734 v -15.71094 h -8.44922 v 4.00391 h -1.77734 v -4.00391 h -6.96875 v 7.5586 h -1.77735 v -7.5586 h -3.26171 v 8.15235 h -1.77735 v -8.15235 h -2.37109 v 20.3086 h -1.78125 v -20.3086 h -4.44531 v 18.37891 h -1.77735 v -18.37891 h -4.15234 v 77.96485 h -1.77735 v -77.96485 h -3.85546 v 54.54688 h -1.77735 v -54.54688 h -2.07422 v 14.82422 h -1.78125 v -14.82422 h -5.03906 v 11.26563 h -1.77734 v -11.26563 h -2.66797 v 7.85547 h -1.77735 v -7.85547 h -6.96875 v 14.23047 h -1.77734 v -14.23047 h -2.96484 v 68.92188 h -1.77735 v -68.92188 h -2.66797 v 49.65625 h -1.78125 v -49.65625 h -3.70312 v 18.37891 h -1.78125 v -18.37891 h -4.74219 v 3.70703 h -1.77734 v -3.70703 h -3.5586 v 4.59375 h -1.77734 v -4.59375 h -16.15625 v 10.96875 h -1.77734 v -10.96875 h -11.41407 v 6.67188 h -1.78125 v -6.67188 h -5.6289 v 13.63672 h -1.78125 v -13.63672 h -4.14844 v 29.19922 h -1.78125 v -29.19922 h -2.66797 v 20.89844 h -1.77734 v -20.89844 h -8.44922 v 8.15235 h -1.77734 v -8.15235 h -6.67188 v 6.375 h -1.77734 v -6.375 h -3.85157 v 14.23047 h -1.78125 v -14.23047 h -3.26171 v 22.38281 h -1.77735 v -22.38281 h -4.74219 v 7.26172 h -1.77734 v -7.26172 h -3.85547 v 10.375 h -1.77734 v -10.375 h -7.26563 v 5.1875 H 727.875 v -5.1875 h -5.92969 v 10.67188 h -1.77734 v -10.67188 h -6.22656 v 20.3086 h -1.77735 v -20.3086 h -1.48437 v 95.75 h -1.77735 v -95.75 h -2.37109 v 34.08985 h -1.77734 v -34.08985 h -3.5586 v 23.26953 h -2.51953 v -23.26953 h -1.48047 v 43.42969 h -1.78125 v -43.42969 h -1.48047 v 59.58594 h -1.78125 v -59.58594 h -2.37109 v 91.60156 h -1.77734 v -91.60156 h -3.26172 v 11.26563 h -1.77735 v -11.26563 h -3.55859 v 17.19531 h -1.77734 v -17.19531 h -2.66797 v 25.9375 h -1.78125 v -25.9375 h -3.25782 v 4.89063 h -1.78125 v -4.89063 h -3.85156 v 7.26172 h -1.78125 v -7.26172 h -8.44531 v 5.78125 h -1.78125 v -5.78125 h -4.44531 v 10.375 h -1.77735 v -10.375 h -4.15234 v 6.96875 h -2.51953 v -6.96875 h -5.33594 v 6.375 h -1.77734 v -6.375 h -1.78125 v 53.0625 h -1.77735 v -53.0625 H 625.75 V 446.5 h -1.77734 v -38.24219 h -2.96485 v 70.85156 h -1.77734 v -70.85156 h -3.5586 v 32.60938 h -1.77734 v -32.60938 h -2.37109 v 17.78516 h -1.78125 v -17.78516 h -2.66797 v 16.00781 h -1.77735 v -16.00781 h -2.07421 v 16.30469 h -1.78125 v -16.30469 h -2.96485 v 100.78906 h -2.07422 V 408.25781 h -3.26172 v 20.01172 h -1.77734 v -20.01172 h -4.44531 v 14.52735 h -1.78125 v -14.52735 h -6.66797 v 82.26172 h -1.77734 v -82.26172 h -1.78125 v 82.26172 h -1.77735 v -82.26172 h -2.07422 v 15.41406 h -1.78125 v -15.41406 h -2.07422 v 48.46875 h -1.77734 v -48.46875 h -1.63281 v 76.1875 h -1.77735 v -76.1875 h -1.92578 v 10.07813 h -2.22265 v -10.07813 h -1.78125 v 19.71485 h -1.77735 v -19.71485 h -0.89062 v 13.9336 h -1.77735 v -13.9336 h -2.8164 v 16.75 h -1.77735 v -16.75 h -1.33593 V 429.75 h -1.77735 v -21.49219 h -2.37109 v 20.01172 h -1.78125 v -20.01172 h -2.96484 v 12.30469 h -1.77735 v -12.30469 h -1.6289 v 6.67188 h -1.78125 v -6.67188 h -2.51954 v 6.96875 h -1.77734 v -6.96875 h -1.92578 v 15.71094 H 523.625 v -15.71094 h -1.33203 V 419.375 h -1.77735 v -11.11719 h -2.51953 v 6.67188 h -1.78125 v -6.67188 h -2.8164 v 14.08203 h -1.77735 v -14.08203 h -1.92578 v 22.67969 h -1.78125 v -22.67969 h -6.8164 v 2.66797 h -1.78125 v -2.66797 h -6.66797 v 2.22266 h -1.77735 v -2.22266 h -6.375 v 5.63281 h -1.77734 v -5.63281 h -1.1875 v 14.37891 h -1.77734 v -14.37891 h -1.92579 v 25.9375 h -1.78125 v -25.9375 h -4.44531 v 7.85547 h -1.77734 v -7.85547 h -0.74219 V 423.375 h -1.78125 v -15.11719 h -2.96094 v 9.33985 h -1.78125 v -9.33985 h -0.44531 v 15.71094 h -1.77734 v -15.71094 h -1.03907 v 9.04297 h -1.77734 v -9.04297 h -1.18359 v 5.48438 h -1.78125 v -5.48438 h -1.92578 v 4.30078 h -1.77735 v -4.30078 h -2.51953 v 5.1875 h -1.78125 v -5.1875 h -2.37109 v 7.5586 h -1.77735 v -7.5586 h -7.55859 v -1.77734 h 7.55859 v -11.85938 h 1.77735 v 11.85938 h 2.37109 v -8.7461 h 1.78125 v 8.7461 h 2.37109 v -5.92969 h 1.92579 v 5.92969 h 1.33203 v -7.26563 h 1.78125 v 7.26563 h 1.18359 v -11.85938 h 1.78125 v 11.85938 h 1.03516 v -17.78906 h 1.78125 v 17.78906 h 0.4414 v -11.71094 h 1.78125 v 11.71094 h 2.96485 v -17.78906 h 1.77734 v 17.78906 h 0.74219 v -10.67188 h 1.77734 v 10.67188 h 4.44531 v -28.60938 h 1.78125 v 28.60938 h 1.92579 v -14.52735 h 1.77734 v 14.52735 h 1.1875 v -5.03906 h 1.77734 v 5.03906 h 6.375 v -4.44922 h 1.77735 v 4.44922 h 6.67187 v -4.15235 h 1.77735 v 4.15235 h 6.8164 v -25.05078 h 1.78125 v 24.90234 h 1.92578 v -22.82812 h 2.3711 v 22.97656 h 2.22265 v -8.7461 h 1.78125 v 8.7461 h 2.51953 v -13.33985 h 1.77735 v 13.33985 h 1.33594 v -17.04688 h 1.77734 v 16.89844 h 1.92578 v -7.11719 h 1.78125 v 7.11719 h 2.51953 v -9.04297 h 1.77735 v 9.04297 h 1.6289 v -21.49219 h 1.78125 v 21.49219 h 2.96485 V 383.0625 h 1.77734 v 23.41797 h 2.37109 v -25.34766 h 1.77735 v 25.34766 h 1.33593 v -22.23438 h 1.77735 v 22.08594 h 2.8164 v -17.04687 h 2.3711 v 17.19531 h 0.74219 v -22.97656 h 1.77734 v 22.97656 h 1.92969 v -12.30469 h 1.77734 v 12.30469 h 1.92578 v -81.22656 h 1.78125 v 81.07812 h 1.62891 v -29.94141 h 1.77734 v 29.94141 h 2.07422 v -18.82422 h 1.78125 v 18.82422 h 2.07422 v -78.85547 h 1.77734 v 79.00391 h 1.78125 v -85.67188 h 1.77735 v 85.67188 h 6.67187 v -10.375 h 1.77735 v 10.375 h 4.44531 v -23.71485 h 1.78125 v 23.71485 h 3.25781 V 300.94531 h 1.78125 v 105.53516 h 2.96484 v -19.86328 h 1.77735 v 19.71484 h 2.07422 v -20.89844 h 1.77734 v 20.89844 H 609 v -22.08594 h 1.78125 v 22.08594 h 2.37109 v -35.27734 h 1.77735 v 35.42578 h 3.26172 v -57.66016 h 1.77734 v 57.66016 h 2.96484 v -22.23438 h 1.78125 v 22.08594 h 2.96094 v -51.28516 h 1.78125 v 51.28516 h 1.77734 v -8.30078 h 1.77735 v 8.30078 h 5.33594 v -5.33594 h 1.78125 v 5.33594 h 4.14843 v -15.71094 h 1.78125 v 15.85938 h 4.44532 v -7.70703 h 1.77734 v 7.70703 h 8.44922 v -9.19141 h 1.77734 v 9.19141 h 3.85547 v -7.70703 h 1.77734 v 7.70703 h 3.26172 v -26.97656 h 1.77735 v 26.97656 h 2.66797 V 380.6875 h 1.78125 v 25.79297 h 3.55468 v -19.86328 h 1.78125 v 19.71484 h 3.26172 V 312.0625 h 1.77735 v 94.41797 h 2.37109 v -81.82031 h 1.77734 v 81.67187 h 1.48438 v -44.02344 h 1.77734 v 44.17188 h 1.48438 v -27.57031 h 1.77734 v 27.57031 h 3.55859 v -37.79688 h 1.77735 v 37.79688 h 2.37109 v -97.97656 h 1.77735 v 97.97656 h 1.48437 v -23.125 h 1.77734 v 23.125 h 6.22657 v -11.5625 h 1.77734 v 11.5625 h 5.92969 v -12.45313 h 1.77734 v 12.45313 h 7.26563 v -14.37891 h 1.77734 v 14.37891 h 3.85156 v -8.89453 h 1.78125 v 8.89453 h 4.74219 v -27.27344 h 1.77734 v 27.27344 h 3.26172 v -15.26953 h 1.77735 v 15.26953 h 3.85547 v -9.78516 H 759 v 9.78516 h 6.67187 v -4.74219 h 1.77735 v 4.74219 h 8.44922 v -21.9375 h 1.77734 v 21.78906 h 2.66797 v -33.20312 h 1.78125 v 33.35156 h 3.85156 v -14.67578 h 1.78125 v 14.67578 h 5.62891 v -8.59766 h 1.78125 v 8.59766 h 11.11719 v -12.45313 h 1.77734 v 12.45313 h 16.15625 v -6.82031 h 1.77734 v 6.82031 h 3.5586 v -10.375 h 1.77734 v 10.375 h 4.74609 v -22.82813 h 1.77735 v 22.82813 h 3.26172 v -71.14844 h 1.77734 v 71.14844 h 2.66797 v -81.82031 h 1.77734 v 81.67187 h 2.96485 v -20.60156 h 1.78125 v 20.60156 h 6.96484 v -12.15625 h 1.77734 v 12.15625 h 2.66797 V 392.25 h 1.78125 v 14.08203 h 5.03907 v -15.12109 h 1.77734 v 15.26953 h 2.07422 v -56.76953 h 1.78125 v 56.76953 h 3.55469 v -78.11328 h 1.78125 v 78.11328 h 4.14843 V 380.6875 h 1.77735 v 25.79297 h 4.44922 V 381.875 h 1.77734 v 24.60547 h 2.37109 v -12.89453 h 1.78125 v 12.89453 h 3.25782 v -11.5625 h 1.78125 v 11.5625 h 6.96484 v -6.52344 h 1.77734 v 6.52344 h 8.44922 v -16.15625 h 1.78125 v 16.15625 h 2.66797 v -45.94922 h 1.77734 v 45.94922 h 2.96485 v -33.64844 h 1.77734 v 33.64844 h 2.07422 v -30.38672 h 1.78125 v 30.23828 h 3.85156 v -33.79687 h 1.78125 v 33.94531 h 3.55469 v -28.75391 h 1.78125 v 28.75391 h 2.66797 V 383.0625 h 1.77734 v 23.41797 h 2.07422 v -12.45313 h 1.78125 v 12.45313 h 2.66797 v -9.78516 h 1.77734 v 9.78516 h 3.5586 v -6.22656 h 1.77734 v 6.22656 h 9.33594 v -12.15625 h 1.78125 v 12.15625 h 6.22266 v -8.00391 h 1.78125 v 8.00391 h 1.48046 v -8.89453 h 1.78125 v 8.89453 h 2.96094 v -10.375 h 6.52344 z m 0,0"
       fill-opacity="1"
       fill-rule="nonzero"
       id="path4" />
  </g>
  <g
     clip-path="url(#444b194f42)"
     id="g5"
     transform="translate(0,-300.94533)">
    <path
       fill="#8c52ff"
       d="m 444.07422,395.95703 v 18.37891 h -1.77735 v -6.07813 h -2.96484 v 5.48438 h -1.77734 v -5.48438 h -1.48438 v 5.1875 h -1.77734 v -5.1875 h -6.22656 v 9.04297 h -1.77735 v -9.04297 h -9.33594 v 5.48438 h -1.78125 v -5.48438 h -3.55468 v 4.89063 h -2.07813 v -4.89063 h -2.66797 v 8.44922 h -1.77734 v -8.44922 h -2.07422 v 18.08203 h -1.78125 v -18.08203 h -2.66797 v 25.9375 h -1.77734 v -25.9375 h -3.5586 v 32.01563 h -1.77734 v -32.01563 h -3.85156 v 26.23438 h -1.78125 V 408.25781 H 383.75 v 27.71875 h -1.77734 v -27.71875 h -2.96485 v 44.02344 h -1.78125 v -44.02344 h -3.25781 v 15.71094 h -1.78125 v -15.71094 h -8.44922 v 4.00391 h -1.77734 v -4.00391 h -6.96485 v 7.5586 h -1.78125 v -7.5586 h -3.25781 v 8.15235 h -1.78125 v -8.15235 h -2.37109 v 20.3086 h -1.77735 v -20.3086 h -4.44922 v 18.37891 h -1.77734 v -18.37891 h -4.14844 v 77.96485 h -1.78125 v -77.96485 h -3.85156 v 54.54688 h -1.78125 v -54.54688 h -2.07422 v 14.82422 h -1.77734 v -14.82422 h -5.03906 v 11.26563 h -1.78125 v -11.26563 h -2.66797 v 7.85547 h -1.77735 v -7.85547 h -6.96484 v 14.23047 H 302.375 v -14.23047 h -2.96484 v 68.92188 h -1.77735 v -68.92188 h -2.66797 v 49.65625 h -1.77734 v -49.65625 h -3.70703 v 18.37891 h -1.77735 v -18.37891 h -4.74218 v 3.70703 h -1.78125 v -3.70703 H 277.625 v 4.59375 h -1.78125 v -4.59375 H 259.6875 v 10.96875 h -1.77734 v -10.96875 h -11.41407 v 6.67188 h -1.77734 v -6.67188 h -5.63281 v 13.63672 h -1.77735 v -13.63672 h -4.15234 v 29.19922 h -1.77734 v -29.19922 h -2.66797 v 20.89844 h -1.77735 v -20.89844 h -8.44922 v 8.15235 h -1.78125 v -8.15235 h -6.66796 v 6.375 h -1.77735 v -6.375 h -3.85547 v 14.23047 H 202.625 v -14.23047 h -3.26172 v 22.38281 h -1.77734 v -22.38281 h -4.7461 v 7.26172 h -1.77734 v -7.26172 h -3.85547 v 10.375 h -1.77734 v -10.375 h -7.26172 v 5.1875 h -1.77735 v -5.1875 h -5.92968 v 10.67188 h -1.78125 v -10.67188 h -6.22266 v 20.3086 h -1.78125 v -20.3086 h -1.48047 v 95.75 h -1.77734 v -95.75 h -2.375 v 34.08985 h -1.77735 v -34.08985 h -3.55859 v 23.26953 h -2.51953 v -23.26953 h -1.48047 v 43.42969 h -1.77734 v -43.42969 h -1.48438 v 59.58594 h -1.77734 v -59.58594 h -2.3711 v 91.60156 h -1.78125 v -91.60156 h -3.25781 v 11.26563 h -1.78125 v -11.26563 h -3.55468 v 17.19531 h -1.78125 v -17.19531 h -2.66797 v 25.9375 h -1.77735 v -25.9375 h -3.26172 v 4.89063 h -1.77734 v -4.89063 h -3.85547 v 7.26172 h -1.77734 v -7.26172 h -8.44922 v 5.78125 h -1.77734 v -5.78125 h -4.449224 v 10.375 h -1.777344 v -10.375 h -4.148437 v 6.96875 h -2.519531 v -6.96875 h -5.335938 v 6.375 h -1.78125 v -6.375 h -1.777344 v 53.0625 h -1.777343 v -53.0625 H 74.265625 V 446.5 h -1.78125 v -38.24219 h -2.964844 v 70.85156 h -1.777343 v -70.85156 h -3.558594 v 32.60938 H 62.40625 v -32.60938 h -2.371094 v 17.78516 h -1.777344 v -17.78516 h -2.667968 v 16.00781 h -1.78125 V 408.25781 H 51.734375 V 424.5625 H 49.957031 V 408.25781 H 46.992188 V 509.04687 H 44.917969 V 408.25781 H 41.65625 v 20.01172 h -1.777344 v -20.01172 h -4.449218 v 14.52735 h -1.777344 v -14.52735 h -6.671875 v 82.26172 h -1.777344 v -82.26172 h -1.777344 v 82.26172 h -1.78125 v -82.26172 h -2.074219 v 15.41406 H 17.792969 V 408.25781 H 15.71875 v 48.46875 H 13.9375 v -48.46875 h -1.628906 v 76.1875 H 10.53125 v -76.1875 H 8.601562 v 10.07813 H 6.378906 V 408.25781 H 4.601562 v 19.71485 H 2.820312 V 408.25781 H 1.933594 v 13.9336 h -1.78125 v -13.9336 h -2.816406 v 16.75 h -1.777344 v -16.75 H -5.773438 V 429.75 h -1.78125 v -21.49219 h -2.371093 v 20.01172 h -1.777344 v -20.01172 h -2.964844 v 12.30469 h -1.777343 v -12.30469 h -1.632813 v 6.67188 h -1.777344 v -6.67188 H -22.375 v 6.96875 h -1.78125 v -6.96875 h -1.925781 v 15.71094 h -1.777344 v -15.71094 h -1.335937 V 419.375 h -1.777344 v -11.11719 h -2.519532 v 6.67188 h -1.777343 v -6.67188 h -2.816407 v 14.08203 h -1.78125 v -14.08203 h -1.925781 v 22.67969 h -1.777343 v -22.67969 h -6.820313 v 2.66797 h -1.777344 v -2.66797 h -6.671875 v 2.22266 h -1.777344 v -2.22266 h -6.375 v 5.63281 h -1.777343 v -5.63281 h -1.183594 v 14.37891 h -1.78125 v -14.37891 h -1.925781 v 25.9375 H -75.4375 v -25.9375 h -4.449219 v 7.85547 h -1.777343 v -7.85547 H -82.40625 V 423.375 h -1.777344 v -15.11719 h -2.964844 v 9.33985 h -1.777343 v -9.33985 h -0.445313 v 15.71094 h -1.777344 V 408.25781 H -92.1875 v 9.04297 h -1.777344 v -9.04297 h -1.1875 v 5.48438 h -1.777344 v -5.48438 h -1.929687 v 4.30078 h -1.777345 v -4.30078 h -2.51953 v 5.1875 h -1.77734 v -5.1875 h -2.3711 v 7.5586 h -1.78125 v -7.5586 h -7.55859 v -1.77734 h 7.55859 v -11.85938 h 1.78125 v 11.85938 h 2.3711 v -8.7461 h 1.77734 v 8.7461 h 2.37109 v -5.92969 h 1.925785 v 5.92969 h 1.335937 v -7.26563 h 1.777344 v 7.26563 h 1.1875 v -11.85938 h 1.777344 v 11.85938 h 1.039062 v -17.78906 h 1.777344 v 17.78906 h 0.445313 v -11.71094 h 1.777343 v 11.71094 h 2.964844 V 388.69141 H -83 v 17.78906 h 0.742188 v -10.67188 h 1.78125 v 10.67188 h 4.445312 v -28.60938 h 1.777344 v 28.60938 h 1.925781 v -14.52735 h 1.78125 v 14.52735 h 1.183594 v -5.03906 h 1.78125 v 5.03906 h 6.371093 v -4.44922 h 1.78125 v 4.44922 h 6.667969 v -4.15235 h 1.78125 v 4.15235 h 6.816407 v -25.05078 h 1.777343 v 24.90234 h 1.929688 v -22.82812 h 2.371093 v 22.97656 h 2.222657 v -8.7461 h 1.777343 v 8.7461 h 2.519532 v -13.33985 h 1.78125 v 13.33985 h 1.332031 v -17.04688 h 1.777344 v 16.89844 h 1.929687 v -7.11719 h 1.777344 v 7.11719 h 2.519531 v -9.04297 h 1.777344 v 9.04297 h 1.632813 v -21.49219 h 1.777343 v 21.49219 h 2.964844 V 383.0625 h 1.777344 v 23.41797 h 2.371093 v -25.34766 h 1.78125 v 25.34766 h 1.332032 v -22.23438 h 1.78125 v 22.08594 H -0.4375 v -17.04687 h 2.371094 v 17.19531 h 0.738281 v -22.97656 h 1.78125 v 22.97656 H 6.378906 V 394.17578 H 8.15625 v 12.30469 h 1.929688 v -81.22656 h 1.777343 v 81.07812 h 1.628907 v -29.94141 h 1.78125 v 29.94141 h 2.074218 V 387.50781 H 19.125 v 18.82422 h 2.078125 v -78.85547 h 1.777344 v 79.00391 h 1.777343 v -85.67188 h 1.78125 v 85.67188 h 6.667969 v -10.375 h 1.777344 v 10.375 h 4.449219 v -23.71485 h 1.777344 v 23.71485 h 3.261718 V 300.94531 H 46.25 v 105.53516 h 2.964844 v -19.86328 h 1.777344 v 19.71484 h 2.078124 v -20.89844 h 1.777344 v 20.89844 h 2.667969 v -22.08594 h 1.777344 v 22.08594 h 2.371093 v -35.27734 h 1.78125 v 35.42578 h 3.257813 v -57.66016 h 1.78125 v 57.66016 h 2.964844 v -22.23438 h 1.777343 v 22.08594 h 2.964844 v -51.28516 h 1.777344 v 51.28516 H 79.75 v -8.30078 h 1.777344 v 8.30078 h 5.335937 v -5.33594 h 1.777344 v 5.33594 h 4.152344 v -15.71094 h 1.777343 v 15.85938 h 4.445313 v -7.70703 h 1.781255 v 7.70703 h 8.44921 v -9.19141 h 1.77735 v 9.19141 h 3.85156 v -7.70703 h 1.78125 v 7.70703 h 3.26172 v -26.97656 h 1.77734 v 26.97656 h 2.66797 V 380.6875 h 1.77735 v 25.79297 h 3.55859 v -19.86328 h 1.77734 v 19.71484 h 3.26172 V 312.0625 h 1.77734 v 94.41797 h 2.3711 v -81.82031 h 1.78125 v 81.67187 h 1.48047 v -44.02344 h 1.78125 v 44.17188 h 1.48047 v -27.57031 h 1.77734 v 27.57031 h 3.55859 v -37.79688 h 1.77735 v 37.79688 h 2.375 v -97.97656 h 1.77734 v 97.97656 h 1.48047 v -23.125 h 1.78125 v 23.125 h 6.22266 v -11.5625 h 1.78125 v 11.5625 h 5.92578 v -12.45313 h 1.78125 v 12.45313 h 7.26172 v -14.37891 h 1.77734 v 14.37891 h 3.85547 v -8.89453 h 1.77734 v 8.89453 h 4.74219 v -27.27344 h 1.78125 v 27.27344 h 3.26172 v -15.26953 h 1.77734 v 15.26953 h 3.85156 v -9.78516 h 1.78125 v 9.78516 h 6.66797 v -4.74219 h 1.78125 v 4.74219 h 8.44532 v -21.9375 h 1.78125 v 21.78906 h 2.66796 v -33.20312 h 1.77735 v 33.35156 h 3.85547 v -14.67578 h 1.77734 v 14.67578 h 5.63281 v -8.59766 h 1.77735 v 8.59766 h 11.11718 v -12.45313 h 1.77735 v 12.45313 h 16.15625 v -6.82031 h 1.78125 v 6.82031 h 3.55469 v -10.375 h 1.78125 v 10.375 h 4.74218 v -22.82813 h 1.77735 v 22.82813 h 3.26172 v -71.14844 h 1.77734 v 71.14844 h 2.66797 v -81.82031 h 1.78125 v 81.67187 h 2.96484 v -20.60156 h 1.77735 v 20.60156 h 6.96484 v -12.15625 h 1.78125 v 12.15625 h 2.66797 V 392.25 h 1.77734 v 14.08203 h 5.03906 v -15.12109 h 1.78125 v 15.26953 h 2.07422 v -56.76953 h 1.77735 v 56.76953 h 3.55859 v -78.11328 h 1.77734 v 78.11328 h 4.15235 V 380.6875 h 1.77734 v 25.79297 h 4.44531 V 381.875 h 1.78125 v 24.60547 h 2.3711 v -12.89453 h 1.77734 v 12.89453 h 3.26172 v -11.5625 h 1.77734 v 11.5625 h 6.96875 v -6.52344 h 1.77735 v 6.52344 h 8.44922 v -16.15625 h 1.77734 v 16.15625 h 2.66797 v -45.94922 h 1.77734 v 45.94922 h 2.96485 v -33.64844 h 1.78125 v 33.64844 h 2.07422 v -30.38672 h 1.77734 v 30.23828 h 3.85547 v -33.79687 h 1.77734 v 33.94531 h 3.5586 v -28.75391 h 1.77734 v 28.75391 h 2.66797 V 383.0625 h 1.77734 v 23.41797 h 2.07813 v -12.45313 h 1.77734 v 12.45313 h 2.66797 v -9.78516 h 1.77734 v 9.78516 h 3.5586 v -6.22656 h 1.77734 v 6.22656 h 9.33984 v -12.15625 h 1.77735 v 12.15625 h 6.22656 v -8.00391 h 1.77734 v 8.00391 h 1.48438 v -8.89453 h 1.77734 v 8.89453 h 2.96485 v -10.375 h 6.51953 z m 0,0"
       fill-opacity="1"
       fill-rule="nonzero"
       id="path5" />
  </g>
  <g
     clip-path="url(#8c117571eb)"
     id="g6"
     transform="translate(0,-300.94533)">
    <path
       fill="#8c52ff"
       d="m 1556.6367,395.95703 v 18.37891 h -1.7773 v -6.07813 h -2.9649 v 5.48438 h -1.7812 v -5.48438 h -1.4805 v 5.1875 h -1.7773 v -5.1875 h -6.2266 v 9.04297 h -1.7773 v -9.04297 h -9.3399 v 5.48438 h -1.7773 v -5.48438 h -3.5586 v 4.89063 h -2.0742 v -4.89063 h -2.668 v 8.44922 h -1.7773 v -8.44922 h -2.0782 v 18.08203 h -1.7773 v -18.08203 h -2.668 v 25.9375 h -1.7773 v -25.9375 h -3.5586 v 32.01563 h -1.7774 v -32.01563 h -3.8554 v 26.23438 h -1.7774 v -26.23438 h -2.0742 v 27.71875 h -1.7812 v -27.71875 h -2.9649 v 44.02344 h -1.7773 v -44.02344 h -3.2618 v 15.71094 h -1.7773 v -15.71094 h -8.4492 v 4.00391 h -1.7774 v -4.00391 h -6.9687 v 7.5586 h -1.7774 v -7.5586 h -3.2617 v 8.15235 h -1.7773 v -8.15235 h -2.3711 v 20.3086 h -1.7813 v -20.3086 h -4.4453 v 18.37891 h -1.7773 v -18.37891 h -4.1524 v 77.96485 h -1.7773 v -77.96485 h -3.8555 v 54.54688 h -1.7773 v -54.54688 h -2.0742 v 14.82422 h -1.7813 v -14.82422 h -5.039 v 11.26563 h -1.7774 v -11.26563 h -2.668 v 7.85547 h -1.7773 v -7.85547 h -6.9688 v 14.23047 h -1.7773 v -14.23047 h -2.9648 v 68.92188 h -1.7774 v -68.92188 h -2.668 v 49.65625 h -1.7812 v -49.65625 h -3.7031 v 18.37891 h -1.7813 v -18.37891 h -4.7422 v 3.70703 h -1.7773 v -3.70703 h -3.5586 v 4.59375 h -1.7773 v -4.59375 H 1372.25 v 10.96875 h -1.7773 v -10.96875 h -11.4141 v 6.67188 h -1.7813 v -6.67188 h -5.6289 v 13.63672 h -1.7812 v -13.63672 h -4.1484 v 29.19922 h -1.7813 v -29.19922 h -2.668 v 20.89844 h -1.7773 v -20.89844 h -8.4492 v 8.15235 h -1.7774 v -8.15235 h -6.6718 v 6.375 h -1.7774 v -6.375 h -3.8516 v 14.23047 h -1.7812 v -14.23047 h -3.2617 v 22.38281 h -1.7774 v -22.38281 h -4.7422 v 7.26172 h -1.7773 v -7.26172 h -3.8555 v 10.375 h -1.7773 v -10.375 h -7.2656 v 5.1875 h -1.7774 v -5.1875 h -5.9297 v 10.67188 h -1.7773 v -10.67188 h -6.2266 v 20.3086 h -1.7773 v -20.3086 h -1.4844 v 95.75 h -1.7773 v -95.75 h -2.3711 v 34.08985 h -1.7774 v -34.08985 h -3.5586 v 23.26953 h -2.5195 v -23.26953 h -1.4805 v 43.42969 h -1.7812 v -43.42969 h -1.4805 v 59.58594 h -1.7812 v -59.58594 h -2.3711 v 91.60156 h -1.7774 v -91.60156 h -3.2617 v 11.26563 h -1.7773 v -11.26563 h -3.5586 v 17.19531 h -1.7774 v -17.19531 h -2.6679 v 25.9375 h -1.7813 v -25.9375 h -3.2578 v 4.89063 h -1.7813 v -4.89063 h -3.8515 v 7.26172 h -1.7813 v -7.26172 h -8.4453 v 5.78125 h -1.7812 v -5.78125 h -4.4453 v 10.375 h -1.7774 v -10.375 h -4.1523 v 6.96875 h -2.5196 v -6.96875 h -5.3359 v 6.375 h -1.7773 v -6.375 h -1.7813 v 53.0625 h -1.7773 v -53.0625 h -2.9649 V 446.5 h -1.7773 v -38.24219 h -2.9649 v 70.85156 h -1.7773 v -70.85156 h -3.5586 v 32.60938 h -1.7773 v -32.60938 h -2.3711 v 17.78516 h -1.7813 v -17.78516 h -2.668 v 16.00781 h -1.7773 v -16.00781 h -2.0742 v 16.30469 h -1.7813 v -16.30469 h -2.9648 v 100.78906 h -2.0742 V 408.25781 h -3.2618 v 20.01172 h -1.7773 v -20.01172 h -4.4453 v 14.52735 h -1.7813 v -14.52735 h -6.6679 v 82.26172 h -1.7774 v -82.26172 h -1.7812 v 82.26172 h -1.7774 v -82.26172 h -2.0742 v 15.41406 h -1.7812 v -15.41406 h -2.0743 v 48.46875 H 1126.5 v -48.46875 h -1.6328 v 76.1875 h -1.7774 v -76.1875 h -1.9257 v 10.07813 h -2.2227 v -10.07813 h -1.7812 v 19.71485 h -1.7774 v -19.71485 h -0.8906 v 13.9336 h -1.7774 v -13.9336 h -2.8164 v 16.75 h -1.7773 v -16.75 h -1.3359 V 429.75 h -1.7774 v -21.49219 h -2.3711 v 20.01172 h -1.7812 v -20.01172 h -2.9649 v 12.30469 h -1.7773 v -12.30469 h -1.6289 v 6.67188 h -1.7813 v -6.67188 h -2.5195 v 6.96875 h -1.7773 v -6.96875 h -1.9258 v 15.71094 h -1.7813 v -15.71094 h -1.332 V 419.375 h -1.7774 v -11.11719 h -2.5195 v 6.67188 h -1.7812 v -6.67188 h -2.8164 v 14.08203 h -1.7774 v -14.08203 h -1.9258 v 22.67969 h -1.7812 v -22.67969 h -6.8164 v 2.66797 h -1.7813 v -2.66797 h -6.6679 v 2.22266 h -1.7774 v -2.22266 h -6.375 v 5.63281 h -1.7773 v -5.63281 h -1.1875 v 14.37891 h -1.7774 v -14.37891 h -1.9258 v 25.9375 h -1.7812 v -25.9375 h -4.4453 v 7.85547 h -1.7774 v -7.85547 h -0.7421 V 423.375 h -1.7813 v -15.11719 h -2.9609 v 9.33985 h -1.7813 v -9.33985 h -0.4453 v 15.71094 h -1.7773 v -15.71094 h -1.0391 v 9.04297 h -1.7774 v -9.04297 h -1.1835 v 5.48438 h -1.7813 v -5.48438 h -1.9258 v 4.30078 h -1.7773 v -4.30078 h -2.5196 v 5.1875 h -1.7812 v -5.1875 h -2.3711 v 7.5586 h -1.7773 v -7.5586 h -7.55863 v -1.77734 h 7.55863 v -11.85938 h 1.7773 v 11.85938 h 2.3711 v -8.7461 h 1.7812 v 8.7461 h 2.3711 v -5.92969 h 1.9258 v 5.92969 h 1.3321 v -7.26563 h 1.7812 v 7.26563 H 1018 v -11.85938 h 1.7812 v 11.85938 h 1.0352 v -17.78906 h 1.7813 v 17.78906 h 0.4414 v -11.71094 h 1.7812 v 11.71094 h 2.9649 v -17.78906 h 1.7773 v 17.78906 h 0.7422 v -10.67188 h 1.7773 v 10.67188 h 4.4453 v -28.60938 h 1.7813 v 28.60938 h 1.9258 v -14.52735 h 1.7773 v 14.52735 h 1.1875 v -5.03906 h 1.7774 v 5.03906 h 6.375 v -4.44922 h 1.7773 v 4.44922 h 6.6719 v -4.15235 h 1.7773 v 4.15235 h 6.8203 v -25.05078 h 1.7774 v 24.90234 h 1.9258 v -22.82812 h 2.3711 v 22.97656 h 2.2226 v -8.7461 h 1.7813 v 8.7461 h 2.5195 v -13.33985 h 1.7773 v 13.33985 h 1.336 v -17.04688 h 1.7773 v 16.89844 h 1.9258 v -7.11719 h 1.7813 v 7.11719 h 2.5195 v -9.04297 h 1.7773 v 9.04297 h 1.6289 v -21.49219 h 1.7813 v 21.49219 h 2.9648 V 383.0625 h 1.7774 v 23.41797 h 2.3711 v -25.34766 h 1.7773 v 25.34766 h 1.3359 v -22.23438 h 1.7774 v 22.08594 h 2.8164 v -17.04687 h 2.3711 v 17.19531 h 0.7422 v -22.97656 h 1.7773 v 22.97656 h 1.9297 v -12.30469 h 1.7774 v 12.30469 h 1.9257 v -81.22656 h 1.7813 v 81.07812 h 1.6289 v -29.94141 h 1.7773 v 29.94141 h 2.0782 v -18.82422 h 1.7773 v 18.82422 h 2.0742 v -78.85547 h 1.7774 v 79.00391 h 1.7812 v -85.67188 h 1.7774 v 85.67188 h 6.6718 v -10.375 h 1.7774 v 10.375 h 4.4453 v -23.71485 h 1.7812 v 23.71485 h 3.2579 V 300.94531 h 1.7812 v 105.53516 h 2.9648 v -19.86328 h 1.7774 v 19.71484 h 2.0742 v -20.89844 h 1.7774 v 20.89844 h 2.6679 v -22.08594 h 1.7813 v 22.08594 h 2.3711 v -35.27734 h 1.7773 v 35.42578 h 3.2617 v -57.66016 h 1.7774 v 57.66016 h 2.9648 v -22.23438 h 1.7813 v 22.08594 h 2.9609 v -51.28516 h 1.7813 v 51.28516 h 1.7773 v -8.30078 h 1.7773 v 8.30078 h 5.336 v -5.33594 h 1.7812 v 5.33594 h 4.1485 v -15.71094 h 1.7812 v 15.85938 h 4.4453 v -7.70703 h 1.7774 v 7.70703 h 8.4492 v -9.19141 h 1.7773 v 9.19141 h 3.8555 v -7.70703 h 1.7773 v 7.70703 h 3.2618 v -26.97656 h 1.7773 v 26.97656 h 2.668 V 380.6875 h 1.7812 v 25.79297 h 3.5547 v -19.86328 h 1.7813 v 19.71484 h 3.2617 V 312.0625 h 1.7773 v 94.41797 h 2.3711 v -81.82031 h 1.7774 v 81.67187 h 1.4843 v -44.02344 h 1.7774 v 44.17188 h 1.4844 v -27.57031 h 1.7773 v 27.57031 h 3.5586 v -37.79688 h 1.7773 v 37.79688 h 2.3711 v -97.97656 h 1.7774 v 97.97656 h 1.4844 v -23.125 h 1.7773 v 23.125 h 6.2266 v -11.5625 h 1.7773 v 11.5625 h 5.9297 v -12.45313 h 1.7773 v 12.45313 h 7.2657 v -14.37891 h 1.7773 v 14.37891 h 3.8516 v -8.89453 h 1.7812 v 8.89453 h 4.7422 v -27.27344 h 1.7773 v 27.27344 h 3.2618 v -15.26953 h 1.7773 v 15.26953 h 3.8555 v -9.78516 h 1.7773 v 9.78516 h 6.6719 v -4.74219 h 1.7773 v 4.74219 h 8.4493 v -21.9375 h 1.7773 v 21.78906 h 2.668 v -33.20312 h 1.7812 v 33.35156 h 3.8516 v -14.67578 h 1.7812 v 14.67578 h 5.6328 v -8.59766 h 1.7774 v 8.59766 h 11.1172 v -12.45313 h 1.7773 v 12.45313 h 16.1563 v -6.82031 h 1.7773 v 6.82031 h 3.5586 v -10.375 h 1.7774 v 10.375 h 4.746 v -22.82813 h 1.7774 v 22.82813 h 3.2617 v -71.14844 h 1.7774 v 71.14844 h 2.6679 v -81.82031 h 1.7774 v 81.67187 h 2.9648 v -20.60156 h 1.7813 v 20.60156 h 6.9648 v -12.15625 h 1.7773 v 12.15625 h 2.668 V 392.25 h 1.7813 v 14.08203 h 5.039 v -15.12109 h 1.7774 v 15.26953 h 2.0742 v -56.76953 h 1.7812 v 56.76953 h 3.5547 v -78.11328 h 1.7813 v 78.11328 h 4.1484 V 380.6875 h 1.7774 v 25.79297 h 4.4492 V 381.875 h 1.7773 v 24.60547 h 2.3711 v -12.89453 h 1.7813 v 12.89453 h 3.2578 v -11.5625 h 1.7812 v 11.5625 h 6.9649 v -6.52344 h 1.7773 v 6.52344 h 8.4492 v -16.15625 h 1.7813 v 16.15625 h 2.668 v -45.94922 h 1.7773 v 45.94922 h 2.9648 v -33.64844 h 1.7774 v 33.64844 h 2.0742 v -30.38672 h 1.7813 v 30.23828 h 3.8515 v -33.79687 h 1.7813 v 33.94531 h 3.5547 v -28.75391 h 1.7812 v 28.75391 h 2.668 V 383.0625 h 1.7773 v 23.41797 h 2.0742 v -12.45313 h 1.7813 v 12.45313 h 2.668 v -9.78516 h 1.7773 v 9.78516 h 3.5586 v -6.22656 h 1.7773 v 6.22656 h 9.336 v -12.15625 h 1.7812 v 12.15625 h 6.2227 v -8.00391 h 1.7812 v 8.00391 h 1.4805 v -8.89453 h 1.7812 v 8.89453 h 2.961 v -10.375 h 6.5234 z m 0,0"
       fill-opacity="1"
       fill-rule="nonzero"
       id="path6" />
  </g>
</svg>
